<svg width="35" height="35" viewBox="0 0 35 35" fill="none" xmlns="http://www.w3.org/2000/svg">
<path d="M22.6045 2.91797H17.1357C16.5317 2.91797 16.042 3.40766 16.042 4.01172V8.85468C11.0949 9.56231 7.29199 13.8169 7.29199 18.9596H6.19824C4.38606 18.9596 2.91699 20.4288 2.91699 22.2409V30.9909C2.91699 31.5949 3.40669 32.0846 4.01074 32.0846H14.5837C14.7851 32.0846 14.9482 31.9215 14.9482 31.7201V27.3451C14.9482 26.9424 15.2748 26.6159 15.6774 26.6159H19.3232C19.7259 26.6159 20.0524 26.9424 20.0524 27.3451V31.7201C20.0524 31.9215 20.2156 32.0846 20.417 32.0846H30.9899C31.594 32.0846 32.0837 31.5949 32.0837 30.9909V22.2409C32.0837 20.4288 30.6145 18.9596 28.8024 18.9596H27.7087C27.7087 13.5669 23.527 9.15083 18.2295 8.77694V7.29297H22.6045C23.0071 7.29297 23.3337 6.96651 23.3337 6.5638V3.64714C23.3337 3.24443 23.0071 2.91797 22.6045 2.91797ZM22.6045 17.1367V20.0534C22.6045 20.6574 22.1148 21.1471 21.5107 21.1471C20.9067 21.1471 20.417 20.6574 20.417 20.0534V17.1367C20.417 16.5327 20.9067 16.043 21.5107 16.043C22.1148 16.043 22.6045 16.5327 22.6045 17.1367ZM17.1357 16.043C17.7398 16.043 18.2295 16.5327 18.2295 17.1367V20.0534C18.2295 20.6574 17.7398 21.1471 17.1357 21.1471C16.5317 21.1471 16.042 20.6574 16.042 20.0534V17.1367C16.042 16.5327 16.5317 16.043 17.1357 16.043ZM13.8545 17.1367V20.0534C13.8545 20.6574 13.3648 21.1471 12.7607 21.1471C12.1567 21.1471 11.667 20.6574 11.667 20.0534V17.1367C11.667 16.5327 12.1567 16.043 12.7607 16.043C13.3648 16.043 13.8545 16.5327 13.8545 17.1367ZM8.38574 22.6055C8.9898 22.6055 9.47949 23.0952 9.47949 23.6992V27.3451C9.47949 27.9491 8.9898 28.4388 8.38574 28.4388C7.78169 28.4388 7.29199 27.9491 7.29199 27.3451V23.6992C7.29199 23.0952 7.78169 22.6055 8.38574 22.6055ZM27.7087 23.6992V27.3451C27.7087 27.9491 27.219 28.4388 26.6149 28.4388C26.0109 28.4388 25.5212 27.9491 25.5212 27.3451V23.6992C25.5212 23.0952 26.0109 22.6055 26.6149 22.6055C27.219 22.6055 27.7087 23.0952 27.7087 23.6992Z" fill="#CC9DFF"/>
</svg>
