<svg width="70" height="70" viewBox="0 0 70 70" fill="none" xmlns="http://www.w3.org/2000/svg">
<g clip-path="url(#clip0_318_7368)">
<path d="M59.0623 69.9992H26.2498C25.6696 69.9992 25.1132 69.7687 24.703 69.3585C24.2927 68.9482 24.0623 68.3918 24.0623 67.8117V61.2492H19.6873C17.9468 61.2492 16.2776 60.5578 15.0469 59.3271C13.8162 58.0963 13.1248 56.4272 13.1248 54.6867V47.2885L5.58447 43.5304C5.30673 43.3918 5.06169 43.1956 4.86562 42.9549C4.66955 42.7143 4.52694 42.4346 4.44728 42.1346C4.36762 41.8346 4.35272 41.521 4.40359 41.2148C4.45445 40.9086 4.5699 40.6167 4.74228 40.3585L13.1248 27.7607C13.2612 21.8 15.2683 16.033 18.8624 11.2757C22.4564 6.51834 27.4553 3.01152 33.1519 1.25134C38.8485 -0.508835 44.9543 -0.433263 50.6056 1.46737C56.2568 3.368 61.1674 6.99747 64.6426 11.8423C64.8109 12.0751 64.9318 12.3388 64.9982 12.6184C65.0646 12.8979 65.0753 13.1878 65.0297 13.4714C64.9841 13.7551 64.8831 14.027 64.7324 14.2716C64.5817 14.5162 64.3843 14.7288 64.1515 14.8971C63.9187 15.0655 63.655 15.1863 63.3754 15.2527C63.0959 15.3192 62.806 15.3299 62.5224 15.2843C62.2387 15.2387 61.9668 15.1376 61.7222 14.9869C61.4775 14.8363 61.265 14.6389 61.0967 14.406C58.1248 10.2742 53.9192 7.19106 49.0847 5.59993C44.2502 4.0088 39.0356 3.99161 34.1907 5.55084C29.3457 7.11006 25.12 10.1654 22.1209 14.2776C19.1219 18.3898 17.5039 23.347 17.4998 28.4367C17.4991 28.8687 17.3713 29.2909 17.1323 29.6507L9.75603 40.7129L16.2901 43.9789C16.6537 44.1606 16.9595 44.44 17.1732 44.7858C17.3869 45.1316 17.5 45.5302 17.4998 45.9367V54.6867C17.4998 55.2668 17.7302 55.8232 18.1405 56.2335C18.5507 56.6437 19.1071 56.8742 19.6873 56.8742H26.2498C26.8299 56.8742 27.3863 57.1046 27.7966 57.5149C28.2068 57.9251 28.4373 58.4815 28.4373 59.0617V65.6242H56.8748V61.1748C56.7844 54.0235 58.6326 46.9812 62.2232 40.796C64.8892 36.3369 66.0403 31.1346 65.5045 25.967C65.3889 24.771 65.179 23.5861 64.8767 22.4232C64.7458 21.8665 64.8381 21.2807 65.1339 20.7912C65.4296 20.3017 65.9054 19.9476 66.4591 19.8046C67.0128 19.6615 67.6005 19.7411 68.0963 20.0261C68.5921 20.3111 68.9566 20.779 69.1117 21.3295C69.4695 22.7132 69.7196 24.1225 69.8598 25.5448C70.4909 31.6445 69.1286 37.7844 65.977 43.0448C62.7931 48.5504 61.1596 54.8155 61.2498 61.1748V67.8117C61.2498 68.3918 61.0193 68.9482 60.6091 69.3585C60.1988 69.7687 59.6424 69.9992 59.0623 69.9992Z" fill="white"/>
<path d="M30.625 61.25H26.25C25.6698 61.25 25.1134 61.0195 24.7032 60.6093C24.293 60.1991 24.0625 59.6427 24.0625 59.0625C24.0625 58.4823 24.293 57.9259 24.7032 57.5157C25.1134 57.1055 25.6698 56.875 26.25 56.875H30.625C31.2052 56.875 31.7616 57.1055 32.1718 57.5157C32.582 57.9259 32.8125 58.4823 32.8125 59.0625C32.8125 59.6427 32.582 60.1991 32.1718 60.6093C31.7616 61.0195 31.2052 61.25 30.625 61.25Z" fill="white"/>
<path d="M43.9077 41.5625H39.2177C38.1426 41.5629 37.1078 41.1533 36.3241 40.4173C35.5405 39.6812 35.067 38.674 35.0002 37.6009C34.0395 38.0801 32.9321 38.1747 31.9041 37.8654C30.876 37.556 30.0048 36.866 29.468 35.9363L27.1252 31.8763C26.591 30.9451 26.4309 29.8456 26.6775 28.8008C26.9241 27.756 27.5589 26.8441 28.453 26.25C27.5589 25.656 26.9241 24.744 26.6775 23.6992C26.4309 22.6544 26.591 21.5549 27.1252 20.6238L29.4702 16.5638C30.0069 15.6345 30.8778 14.945 31.9054 14.6356C32.9329 14.3263 34.0397 14.4205 35.0002 14.8991C35.067 13.826 35.5405 12.8188 36.3241 12.0827C37.1078 11.3467 38.1426 10.9371 39.2177 10.9375H43.9077C44.9831 10.936 46.0186 11.3453 46.8024 12.0816C47.5863 12.8178 48.0594 13.8256 48.1252 14.8991C49.0864 14.4194 50.1945 14.3248 51.2231 14.6346C52.2517 14.9444 53.1232 15.6352 53.6596 16.5659L56.0002 20.6238C56.5344 21.5549 56.6945 22.6544 56.4479 23.6992C56.2013 24.744 55.5666 25.656 54.6724 26.25C55.5656 26.8443 56.1995 27.756 56.4457 28.8003C56.6918 29.8446 56.5318 30.9434 55.998 31.8741L53.6508 35.9363C53.1137 36.8662 52.242 37.5562 51.2136 37.8655C50.1852 38.1749 49.0775 38.0802 48.1165 37.6009C48.0508 38.6729 47.5788 39.6794 46.7969 40.4155C46.0149 41.1515 44.9816 41.5617 43.9077 41.5625ZM39.3752 37.1875H43.7502C43.7769 36.4742 43.984 35.7794 44.3523 35.1679C44.7205 34.5565 45.2379 34.0484 45.8559 33.6913C46.4739 33.3342 47.1724 33.1398 47.8861 33.1261C48.5997 33.1124 49.3052 33.28 49.9365 33.6131L52.124 29.8222C51.5192 29.4426 51.0208 28.9158 50.6753 28.291C50.3298 27.6662 50.1485 26.964 50.1485 26.25C50.1485 25.536 50.3298 24.8338 50.6753 24.209C51.0208 23.5842 51.5192 23.0574 52.124 22.6778L49.9365 18.8869C49.3052 19.22 48.5997 19.3876 47.8861 19.3739C47.1724 19.3602 46.4739 19.1658 45.8559 18.8087C45.2379 18.4516 44.7205 17.9435 44.3523 17.3321C43.984 16.7207 43.7769 16.0258 43.7502 15.3125H39.3752C39.3482 16.0256 39.1408 16.7202 38.7724 17.3313C38.404 17.9425 37.8866 18.4502 37.2686 18.8071C36.6507 19.1639 35.9523 19.3582 35.2388 19.3718C34.5253 19.3854 33.8201 19.2178 33.189 18.8847L31.0015 22.6778C31.6062 23.0574 32.1046 23.5842 32.4502 24.209C32.7957 24.8338 32.9769 25.536 32.9769 26.25C32.9769 26.964 32.7957 27.6662 32.4502 28.291C32.1046 28.9158 31.6062 29.4426 31.0015 29.8222L33.189 33.6153C33.8201 33.2822 34.5253 33.1146 35.2388 33.1282C35.9523 33.1418 36.6507 33.3361 37.2686 33.6929C37.8866 34.0498 38.404 34.5575 38.7724 35.1687C39.1408 35.7798 39.3482 36.4744 39.3752 37.1875Z" fill="white"/>
<path d="M41.5625 30.625C40.6972 30.625 39.8513 30.3684 39.1319 29.8877C38.4124 29.407 37.8517 28.7237 37.5205 27.9242C37.1894 27.1248 37.1028 26.2451 37.2716 25.3965C37.4404 24.5478 37.8571 23.7683 38.4689 23.1564C39.0808 22.5446 39.8603 22.1279 40.709 21.9591C41.5576 21.7903 42.4373 21.8769 43.2367 22.208C44.0362 22.5392 44.7194 23.0999 45.2002 23.8194C45.6809 24.5388 45.9375 25.3847 45.9375 26.25C45.9375 27.4103 45.4766 28.5231 44.6561 29.3436C43.8356 30.1641 42.7228 30.625 41.5625 30.625Z" fill="white"/>
</g>
<defs>
<clipPath id="clip0_318_7368">
<rect width="70" height="70" fill="white"/>
</clipPath>
</defs>
</svg>
