<svg width="70" height="70" viewBox="0 0 70 70" fill="none" xmlns="http://www.w3.org/2000/svg">
<g clip-path="url(#clip0_318_7359)">
<path d="M61.6263 8.37115C59.5175 6.2624 56.8444 4.92584 53.8978 4.50584C49.6081 3.89772 45.3775 5.30865 42.3172 8.37115C41.4619 9.22647 41.4619 10.6112 42.3172 11.4665C42.3631 11.5124 42.4222 11.5277 42.4703 11.5671C42.5097 11.613 42.525 11.6721 42.5709 11.718L48.8797 18.0268L16.2947 50.6118L11.2788 45.5958L38.9222 17.9524C39.7775 17.0971 39.7775 15.7146 38.9222 14.8593C38.0669 14.004 36.6844 14.004 35.8291 14.8593L6.64344 44.0449C6.64125 44.0471 6.63906 44.0471 6.63687 44.0493L5.01375 45.6724C4.80813 45.878 4.64844 46.123 4.53906 46.3877C4.43188 46.6546 4.375 46.9368 4.375 47.219V63.4349C4.375 64.6446 5.355 65.6224 6.5625 65.6224H22.7806C23.3603 65.6224 23.9181 65.3927 24.3272 64.9815L61.6263 27.6824C66.9484 22.358 66.9484 13.6955 61.6263 8.37115ZM53.2831 8.83928C55.2825 9.12365 57.0981 10.0315 58.5309 11.4643C61.6131 14.5487 62.0441 19.2671 59.8741 22.8371L53.5172 16.478L47.1384 10.0993C48.9562 8.98584 51.1066 8.53084 53.2831 8.83928ZM8.75 61.2474V49.2555L14.7437 55.2493C14.7459 55.2515 14.7459 55.2537 14.7459 55.2537L14.7503 55.2558L20.7419 61.2474H8.75ZM19.3878 53.7049L51.9706 21.1199L56.9866 26.1358L24.4016 58.7208L19.3878 53.7049Z" fill="white"/>
</g>
<defs>
<clipPath id="clip0_318_7359">
<rect width="70" height="70" fill="white"/>
</clipPath>
</defs>
</svg>
